; NON-PLATED HOLES START AT T1
; THROUGH (PLATED) HOLES START AT T100
M48
INCH
T1C0.033222
T100C0.038000
T101C0.036000
T102C0.028000
T103C0.090000
%
T1
X015638Y004694
X015642Y008756
T100
X010015Y007291
X009015Y007291
X008015Y007291
X007015Y007291
X011015Y008291
X011015Y009291
T101
X003460Y005044
X003460Y006028
X004240Y006028
X004240Y005044
T102
X026640Y000666
X015638Y007666
X023640Y000666
X019640Y000666
X022640Y000666
X027640Y009662
X015642Y006666
X025640Y009666
X024640Y009666
X018640Y009662
X015642Y008756
X021640Y009662
X015638Y004694
X015638Y003666
X020640Y009662
X027640Y000666
X015642Y005666
X018640Y000666
X021640Y000666
X026640Y009662
X020640Y000666
X023640Y009662
X019640Y009662
X022640Y009662
X025640Y000670
X024640Y000670
T103
X002390Y007906
X002390Y003166
T00
M30
