G04 MADE WITH FRITZING*
G04 WWW.FRITZING.ORG*
G04 DOUBLE SIDED*
G04 HOLES PLATED*
G04 CONTOUR ON CENTER OF CONTOUR VECTOR*
%ASAXBY*%
%FSLAX23Y23*%
%MOIN*%
%OFA0B0*%
%SFA1.0B1.0*%
%ADD10C,0.060000*%
%ADD11C,0.033222*%
%ADD12C,0.066000*%
%ADD13C,0.110000*%
%ADD14C,0.078000*%
%ADD15R,0.078740X0.039370*%
%ADD16C,0.015436*%
%ADD17C,0.012000*%
%ADD18C,0.024000*%
%ADD19R,0.001000X0.001000*%
%LNCOPPER1*%
G90*
G70*
G54D10*
X2764Y67D03*
X2664Y67D03*
X2564Y67D03*
X2464Y67D03*
X2364Y67D03*
X2264Y67D03*
X2164Y67D03*
X2064Y67D03*
X1964Y67D03*
X1864Y67D03*
X2764Y966D03*
X2664Y966D03*
X2564Y967D03*
X2464Y967D03*
X2364Y966D03*
X2264Y966D03*
X2164Y966D03*
X2064Y966D03*
X1964Y966D03*
X1864Y966D03*
X1564Y367D03*
X1564Y567D03*
X1564Y667D03*
X1564Y767D03*
G54D11*
X1564Y469D03*
G54D10*
X1564Y469D03*
G54D11*
X1564Y876D03*
G54D10*
X1564Y876D03*
G54D12*
X424Y504D03*
X424Y603D03*
X346Y603D03*
X346Y504D03*
G54D13*
X239Y317D03*
X239Y791D03*
G54D12*
X424Y504D03*
X424Y603D03*
X346Y603D03*
X346Y504D03*
G54D13*
X239Y317D03*
X239Y791D03*
G54D14*
X1102Y929D03*
X1102Y829D03*
X1002Y729D03*
X902Y729D03*
X802Y729D03*
X702Y729D03*
G54D15*
X1414Y929D03*
X1414Y829D03*
X1327Y829D03*
X1327Y929D03*
G54D16*
X2986Y898D02*
X1643Y898D01*
D02*
X1643Y898D02*
X1643Y146D01*
D02*
X1643Y146D02*
X2986Y146D01*
D02*
X2986Y898D02*
X2986Y712D01*
D02*
X2986Y331D02*
X2986Y146D01*
G54D17*
D02*
X1290Y653D02*
X1546Y759D01*
D02*
X953Y653D02*
X1290Y653D01*
D02*
X915Y709D02*
X953Y653D01*
D02*
X1545Y662D02*
X1290Y603D01*
D02*
X890Y603D02*
X816Y709D01*
D02*
X1290Y603D02*
X890Y603D01*
G54D18*
D02*
X1293Y929D02*
X1132Y929D01*
G54D17*
D02*
X1627Y930D02*
X1448Y929D01*
D02*
X1579Y379D02*
X1627Y417D01*
D02*
X1627Y417D02*
X1627Y930D01*
G54D18*
D02*
X1293Y829D02*
X1132Y829D01*
D02*
X1414Y843D02*
X1414Y915D01*
G54D17*
D02*
X428Y392D02*
X360Y485D01*
D02*
X686Y710D02*
X428Y392D01*
D02*
X1544Y367D02*
X913Y366D01*
D02*
X913Y366D02*
X714Y708D01*
G54D19*
D02*
G04 End of Copper1*
M02*